<svg width="50" height="50" viewBox="0 0 50 50" fill="none" xmlns="http://www.w3.org/2000/svg">
<circle cx="25" cy="25" r="25" fill="url(#paint0_linear)" fill-opacity="0.85"/>
<path d="M22.6097 14.4416C23.3371 14.0239 24.1613 13.804 25.0001 13.804C25.8389 13.804 26.6631 14.0239 27.3905 14.4416L38.9985 21.1072C39.1205 21.1773 39.2218 21.2783 39.2923 21.4001C39.3628 21.5219 39.3999 21.6601 39.3999 21.8008C39.3999 21.9415 39.3628 22.0797 39.2923 22.2015C39.2218 22.3232 39.1205 22.4243 38.9985 22.4944L34.6001 25.0192V32.2C34.6003 32.3051 34.5798 32.4093 34.5397 32.5064C34.4996 32.6036 34.4407 32.692 34.3665 32.7664L34.3633 32.768L34.3601 32.7728L34.3489 32.7824L34.3121 32.8176L34.1841 32.936C34.0721 33.0336 33.9121 33.1712 33.7025 33.3328C33.1278 33.7741 32.5171 34.1664 31.8769 34.5056C29.7594 35.6289 27.3971 36.2115 25.0001 36.2016C22.6031 36.2115 20.2408 35.6289 18.1233 34.5056C17.4836 34.1663 16.8735 33.774 16.2993 33.3328C16.0883 33.1699 15.8844 32.998 15.6881 32.8176C15.6001 32.74 15.5292 32.6452 15.4796 32.5389C15.43 32.4326 15.403 32.3172 15.4001 32.2V25.0192L12.2001 23.1824V30.6C12.2001 30.8122 12.1158 31.0157 11.9658 31.1657C11.8158 31.3157 11.6123 31.4 11.4001 31.4C11.1879 31.4 10.9844 31.3157 10.8344 31.1657C10.6844 31.0157 10.6001 30.8122 10.6001 30.6V21.8C10.6 21.6564 10.6386 21.5153 10.7118 21.3917C10.785 21.2682 10.8901 21.1665 11.0161 21.0976L22.6097 14.4416ZM27.3905 29.1584C26.6631 29.5761 25.8389 29.7959 25.0001 29.7959C24.1613 29.7959 23.3371 29.5761 22.6097 29.1584L17.0001 25.9376V31.8432C17.5827 32.3214 18.2114 32.7405 18.8769 33.0944C20.2849 33.8464 22.3569 34.6 25.0001 34.6C27.1339 34.6108 29.2373 34.0942 31.1233 33.096C31.789 32.7412 32.4177 32.321 33.0001 31.8416V25.9376L27.3905 29.1568V29.1584ZM26.5937 15.8304C26.1088 15.5519 25.5593 15.4054 25.0001 15.4054C24.4409 15.4054 23.8914 15.5519 23.4065 15.8304L13.0065 21.8L23.4065 27.7712C23.8914 28.0497 24.4409 28.1962 25.0001 28.1962C25.5593 28.1962 26.1088 28.0497 26.5937 27.7712L36.9937 21.8L26.5937 15.8288V15.8304Z" fill="#203C58"/>
<defs>
<linearGradient id="paint0_linear" x1="25" y1="0" x2="25" y2="50" gradientUnits="userSpaceOnUse">
<stop stop-color="#E0EAFC"/>
<stop offset="1" stop-color="#E0EAFC"/>
</linearGradient>
</defs>
</svg>
