<svg width="50" height="50" viewBox="0 0 50 50" fill="none" xmlns="http://www.w3.org/2000/svg">
<circle cx="25" cy="25" r="25" fill="#E0EAFC"/>
<path d="M33.125 15.25H29.875V13.625H28.25V15.25H21.75V13.625H20.125V15.25H16.875C15.9812 15.25 15.25 15.9812 15.25 16.875V33.125C15.25 34.0188 15.9812 34.75 16.875 34.75H33.125C34.0188 34.75 34.75 34.0188 34.75 33.125V16.875C34.75 15.9812 34.0188 15.25 33.125 15.25ZM33.125 33.125H16.875V21.75H33.125V33.125ZM33.125 20.125H16.875V16.875H20.125V18.5H21.75V16.875H28.25V18.5H29.875V16.875H33.125V20.125Z" fill="#203C58"/>
</svg>
