<svg width="152" height="108" viewBox="0 0 152 108" fill="none" xmlns="http://www.w3.org/2000/svg">
<path fill-rule="evenodd" clip-rule="evenodd" d="M64.3172 45.4119C62.6868 46.5938 62.9463 48.9195 63.4372 50.6091C64.1599 53.0971 65.5994 55.4002 67.2416 57.3855C70.1549 60.9074 75.1006 64.8619 79.6594 61.77C83.7192 59.0163 86.2801 53.4601 87.164 48.7799C87.4373 47.3336 87.8011 45.1785 86.5175 44.0912C84.6198 42.4839 81.2722 42.7763 78.9813 42.9832C77.4726 43.1194 76.017 43.5818 74.526 43.3648C71.062 42.86 67.2066 43.3172 64.3172 45.4119Z" fill="#BB2D3B"/>
<path fill-rule="evenodd" clip-rule="evenodd" d="M134.552 63.8419C131.249 68.0316 125.634 68.6936 120.647 68.6525C117.652 68.6276 114.652 68.4023 111.716 67.792C110.133 67.4629 108.561 67.027 107.032 66.5034C106.021 66.1574 104.517 65.9845 104.087 64.902C102.954 62.0462 103.788 58.4647 104.255 55.5659C104.492 54.0914 104.671 52.6082 104.902 51.1326C105.05 50.1884 105.12 49.1439 105.516 48.2607C105.979 47.2261 106.564 47.4326 107.544 47.7184C108.894 48.1125 110.28 48.2763 111.668 48.4882C115.055 49.0055 118.011 50.0485 121.089 51.5269C124.133 52.9885 127.086 54.4315 129.801 56.4638C131.176 57.494 132.362 58.6119 133.466 59.9246C134.319 60.9389 135.592 62.5221 134.552 63.8419ZM120.115 82.451C120.088 82.9021 114.912 81.5401 114.231 81.3873C109.761 80.3849 105.203 79.2432 100.984 77.4319C97.0455 75.7413 93.5753 73.8071 90.4761 70.8035C89.0315 69.4034 87.7321 67.9291 86.4887 66.359C85.8656 65.5719 85.0142 65.6633 84.3193 64.9975C83.6942 64.3982 83.2148 63.9303 83.4102 63.0345C84.9721 63.446 87.8562 66.0331 89.4755 64.7266C90.3983 63.9821 89.1184 63.2041 88.5274 62.7727C87.4166 61.9613 86.4667 60.9604 85.5836 59.9098C87.0998 60.2038 88.5111 60.7715 89.8306 61.562C90.4168 61.9131 92.4262 63.1864 92.894 61.9726C93.1819 61.2253 91.8194 60.2864 91.3946 59.8729C90.3514 58.8579 89.2254 57.673 88.6716 56.3083C90.0409 55.9907 91.3316 57.049 92.2641 57.9109C93.2991 58.868 94.5679 59.8723 95.4359 60.9751C95.8836 61.5437 95.9811 62.2155 96.3308 62.829C96.7244 63.5191 97.354 64.1107 97.9556 64.6213C99.1149 65.6054 100.471 66.3299 101.863 66.9292C105.043 68.2983 108.451 69.2674 111.841 69.9471C113.504 70.2807 115.127 70.4343 116.815 70.4909C118.126 70.535 118.707 70.9273 119.208 72.1359C120.563 75.4066 120.317 79.0045 120.115 82.451ZM81.1869 57.53C80.4283 58.2397 79.4428 58.6849 78.65 59.3671C77.9523 59.9675 77.1477 60.608 76.3691 61.0935C75.5378 61.6116 74.9169 61.2483 74.1685 60.7794C73.2899 60.2294 72.2798 60.0063 71.3749 59.5142C68.2462 57.8113 64.4187 53.6389 65.0028 49.8077C65.2502 48.184 66.0897 46.5863 67.6142 45.8494C68.9987 45.1806 71.0112 44.8092 72.4925 45.3685C73.3279 45.684 73.9258 46.3804 74.4611 47.0652C75.0853 47.8633 75.3243 47.7376 75.9599 46.9677C77.0976 45.5905 78.9734 44.3823 80.8278 44.4113C81.7494 44.426 82.6649 44.6202 83.4952 45.0027C83.6077 45.0546 83.6702 45.2116 83.7832 45.2648C83.9219 45.3302 84.1496 45.1942 84.246 45.2553C84.4891 45.4092 84.7319 45.8899 84.872 46.1339C85.4346 47.1126 86.4475 49.0322 85.4268 49.8563C85.4261 49.8566 85.4722 50.9714 85.4582 51.0984C85.3862 51.7634 85.1563 52.3124 84.8602 52.9206C83.9706 54.7475 82.6578 56.1541 81.1869 57.53ZM82.6992 72.9878C81.9807 73.2111 81.2068 70.9594 81.896 70.6C82.5531 70.2573 83.3497 72.7857 82.6992 72.9878ZM71.4143 70.2956C71.1655 71.1461 71.0603 72.1114 70.4519 72.8036C69.8947 72.1426 69.8397 70.9227 70.38 70.2429C70.6885 69.8552 71.6864 69.3661 71.4143 70.2956ZM94.4066 55.393C94.4027 55.4145 95.2713 55.83 94.8476 56.2841C94.2685 56.9046 94.3481 55.697 94.4066 55.393ZM97.9961 48.461C97.9862 49.321 96.1656 49.1133 96.1785 48.2483C96.1945 47.1838 98.0068 47.5493 97.9961 48.461ZM95.8229 41.2733C96.0031 40.4859 99.1699 39.3905 99.0836 40.7629C99.0404 41.4509 95.4407 42.9474 95.8229 41.2733ZM63.3584 67.9759C63.0035 68.4026 62.4992 68.5708 62.0739 68.8985C61.6276 69.2418 61.3087 69.6872 60.919 70.0903C59.8487 71.1968 58.5604 72.106 57.4057 73.1226C55.283 74.991 53.2496 76.9999 50.8962 78.5846C46.6904 81.4162 41.8132 82.965 36.9716 84.321C36.5704 84.4334 35.415 84.8868 35.0182 84.5491C34.5902 84.1849 34.8079 82.9032 34.8276 82.4186C34.9078 80.4315 35.1395 78.421 35.1144 76.437C35.104 75.622 34.8654 74.4636 35.2905 73.7179C35.7653 72.8852 37.0909 72.6415 37.9107 72.3282C40.403 71.3756 42.8037 69.7687 45.0052 68.2806C47.7114 66.451 50.4445 64.5912 53.2295 62.8835C55.9579 61.2103 58.9676 60.0898 62.0112 59.1342C62.1522 59.4305 60.6999 60.384 60.5338 60.5177C59.7376 61.1587 58.8714 61.8232 58.2804 62.6694C57.8618 63.2685 57.4328 64.624 58.5882 64.6587C59.1482 64.6756 59.9763 64.1338 60.4842 63.9586C61.323 63.6691 62.1875 63.4659 63.065 63.3337C62.3105 64.1643 59.7536 65.6563 60.2189 67.0376C60.6702 68.3781 63.281 66.8138 64.1797 66.8138C64.0324 67.2813 63.6621 67.6111 63.3584 67.9759ZM32.5137 71.7172C30.8417 72.3052 29.1278 72.6395 27.4022 73.0192C25.7573 73.3811 24.237 73.6538 22.5522 73.4418C20.2262 73.1494 17.652 72.1859 17.3571 69.5428C17.0074 66.4111 19.2191 63.5333 21.1182 61.2864C23.4295 58.5528 26.0248 56.1089 28.8376 53.8961C31.6472 51.6853 34.6798 49.7364 37.8568 48.091C40.2738 46.8392 43.0037 46.0793 45.5594 45.1398C46.0456 44.9611 47.3904 44.3332 47.8451 44.8536C48.2127 45.2745 47.7125 45.9755 47.545 46.3663C47.2182 47.128 47.1732 47.895 47.0889 48.7129C46.7121 52.3656 46.2584 56.0172 46.0497 59.6856C45.9917 60.7079 45.8892 61.7775 45.9489 62.8005C45.9818 63.3672 46.2767 64.0888 46.0804 64.6421C45.7029 65.7056 43.9742 66.4095 43.058 66.8846C41.4179 67.7351 39.6812 68.3696 38.0241 69.183C36.2044 70.0765 34.4325 71.0422 32.5137 71.7172ZM55.7026 47.9832C56.1616 47.9201 56.8491 47.7951 57.2583 48.0925C57.7918 48.4802 57.6519 49.0196 57.159 49.3009C56.7699 49.5232 55.859 49.584 55.4746 49.3822C54.8196 49.0388 54.9304 48.0894 55.7026 47.9832ZM58.2443 56.4413C57.8735 57.059 56.5182 57.4641 56.6362 56.3114C56.7374 55.3244 58.9275 55.3038 58.2443 56.4413ZM57.7413 39.0398C58.3375 39.2707 59.4195 39.4683 59.5963 40.2353C59.7607 40.949 59.0844 40.9019 58.5962 40.7054C58.1947 40.5441 56.4062 39.0274 57.7413 39.0398ZM151.154 66.2699C150.805 64.9147 151.071 63.4147 150.878 62.0267C150.692 60.6812 150.356 59.4449 149.875 58.1769C148.809 55.3699 147.588 52.843 145.861 50.3794C142.607 45.7401 138.832 41.6537 134.274 38.2651C129.773 34.9198 124.79 32.2011 119.511 30.2957C113.913 28.275 108.279 27.5718 102.376 27.1845C100.613 27.0689 98.8516 26.9318 97.0987 26.7092C95.8175 26.5465 94.2115 26.346 92.9449 26.7384C92.1492 26.9851 91.7046 27.6789 92.5715 28.1344C93.186 28.4572 93.9908 28.4959 94.6697 28.5817C93.8496 31.1867 92.5154 33.8008 90.401 35.5945C88.3367 37.3458 85.5745 37.9462 82.9693 38.3903C81.5567 38.6309 79.9749 38.8172 78.5403 38.7133C77.6333 38.6479 76.9256 38.228 76.5596 39.1621C76.3057 39.8112 76.1855 40.5234 75.8506 39.5434C75.4547 38.3847 75.2603 38.3921 74.0286 38.063C71.5094 37.3901 68.6214 36.7761 66.4237 35.3206C64.1437 33.8106 63.3507 31.368 62.0778 29.0934C61.763 28.5312 60.8135 27.3934 61.2986 26.7491C61.7424 26.16 63.1852 26.2188 63.8459 26.1573C64.5432 26.0925 65.2448 26.0898 65.9444 26.0626C66.3497 26.047 67.165 26.2131 67.0018 25.6077C66.7558 24.6952 64.12 24.8122 63.4656 24.7973C62.2484 24.7701 61.0143 24.7982 59.8032 24.9321C53.7983 25.5962 47.7394 26.8242 41.9285 28.4617C30.6544 31.6385 19.7354 37.4924 11.5077 45.9257C3.60989 54.021 1.10774 67.4921 5.96296 77.8283C8.48624 83.2002 13.962 85.4069 19.2702 87.1892C22.0701 88.1291 25.0348 88.8645 28.0111 88.6871C29.4394 88.6019 30.7945 88.2174 32.1875 87.9277C32.795 87.8012 33.4864 87.5997 34.1104 87.6505C34.5827 87.6891 35.0365 88.1226 35.4795 87.8922C35.794 87.7286 35.9307 87.2593 36.315 87.0593C36.7765 86.8194 37.3358 86.7327 37.8342 86.6118C39.2193 86.2753 40.5605 85.7296 41.9144 85.2822C43.3145 84.8195 44.6358 84.2236 45.9791 83.6213C46.6574 83.3169 48.227 82.08 48.6692 82.9843C48.8706 83.3971 48.7848 84.1931 48.8339 84.626C48.9199 85.3831 49.0209 86.1386 49.1314 86.8925C49.3747 88.5522 49.6661 90.2052 49.9645 91.8561C50.5033 94.8346 51.1977 97.6861 52.3586 100.488C53.2856 102.725 54.0993 105.261 55.8207 107.041C56.5721 107.818 57.5972 108.167 58.675 107.923C59.9008 107.645 60.5111 106.532 61.2553 105.632C62.8926 103.65 65.5959 102.132 68.0922 101.586C71.1488 100.917 74.1264 101.895 77.044 102.727C80.1304 103.607 83.2721 104.446 86.3015 105.504C89.1243 106.489 92.1723 107.945 95.2336 107.819C97.9035 107.708 100.397 105.536 102.322 103.879C104.256 102.216 106.674 99.7803 109.455 99.9765C110.835 100.074 112.093 100.74 113.438 101.01C114.915 101.308 116.486 101.35 117.987 101.461C119.851 101.598 124.02 101.112 124.71 98.8703C124.812 98.5376 124.812 97.8527 124.373 97.7196C123.969 97.5974 123.763 98.0697 123.38 98.0482C122.601 98.0043 121.993 96.6464 121.565 96.1206C119.838 93.9985 117.47 92.4156 115.533 90.4984C113.345 88.3338 111.477 85.7111 109.829 83.1244C110.574 82.9308 111.378 83.2525 112.099 83.4054C112.976 83.591 113.83 83.8153 114.693 84.053C115.645 84.3151 116.611 84.4954 117.577 84.6951C118.297 84.8438 119.254 84.8888 119.905 85.2503C120.472 85.566 120.79 85.905 121.495 85.9965C122.212 86.0897 122.948 86.0112 123.668 86.0064C125.616 85.9931 127.561 85.9569 129.5 85.7511C136.351 85.0232 143.614 82.1251 147.734 76.3734C148.855 74.809 149.758 73.076 150.328 71.2369C150.773 69.8009 151.541 67.7775 151.154 66.2699Z" fill="black"/>
<path fill-rule="evenodd" clip-rule="evenodd" d="M71.8617 16.5252C70.6424 16.9036 69.2012 16.4584 68.5003 15.37C67.7876 14.2634 67.3 12.9827 67.2018 11.6645C67.1079 10.4014 67.3947 9.12259 68.1397 8.08562C68.9323 6.98254 70.5479 5.74616 71.9963 6.1292C72.3014 6.21001 72.5773 6.40439 72.851 6.59735C73.1413 6.80195 73.4292 7.00493 73.7468 7.06836C73.8285 7.08466 73.8857 7.10007 73.9283 7.11135C73.9858 7.12676 74.0165 7.135 74.0437 7.12873C74.075 7.12157 74.1019 7.09559 74.1596 7.03987C74.1924 7.00798 74.2354 6.96641 74.2949 6.9132C74.4174 6.80374 74.5358 6.63891 74.6516 6.47767H74.6517C74.7295 6.36928 74.8064 6.26232 74.8823 6.17507C75.0287 6.0072 75.1747 5.83753 75.3213 5.66751C76.2633 4.57465 77.2232 3.46082 78.3745 2.59643C80.76 0.805378 83.9306 -0.040556 86.8901 0.00149258C88.6906 0.0269869 90.3783 0.560915 92.0561 1.16792C92.1969 1.21886 92.3387 1.26942 92.4807 1.32015L92.4813 1.32033C93.8287 1.80121 95.2185 2.29721 96.2975 3.26069C98.4435 5.17715 99.0025 8.35023 99.3536 11.0648C99.7338 14.0047 98.6861 16.5338 97.6007 19.154V19.1544L97.6004 19.1549V19.1551C97.4352 19.5539 97.2691 19.9547 97.1072 20.3592C95.9598 23.2256 93.8538 25.5477 91.3506 27.3171C90.039 28.2438 88.5896 28.8034 87.0732 29.2939C86.7586 29.3957 86.446 29.5046 86.1337 29.6133H86.1335H86.1333C84.9166 30.0369 83.7043 30.459 82.3928 30.457C79.89 30.4534 76.6859 29.2647 75.6197 26.7989C75.1344 25.6761 75.607 25.4746 76.5782 26.0848C76.7481 26.1914 76.917 26.2991 77.086 26.4066V26.4067H77.0862L77.0867 26.4073C78.3195 27.1924 79.5444 27.9728 80.9924 28.318C84.1857 29.0798 88.0104 27.8997 90.8104 26.3424C93.6094 24.7857 95.4886 22.447 96.7445 19.5351C98.0115 16.5973 98.5039 13.7024 98.0151 10.5354C97.6013 7.85146 96.7773 5.39985 94.3589 3.94293C89.1376 0.798158 82.103 1.05154 77.4599 5.13846C76.823 5.69869 76.1936 6.24387 75.5375 6.77901C75.1202 7.11906 74.629 7.527 74.6897 8.115C74.703 8.24471 74.7841 8.46991 74.8752 8.72235C75.1374 9.45045 75.4821 10.4066 74.5222 9.96392C74.1265 9.78136 73.799 9.53286 73.4761 9.28795C72.9442 8.88449 72.4252 8.49069 71.6349 8.41796C70.2835 8.29326 68.6716 9.33131 68.2672 10.6379C67.8817 11.8847 68.5693 13.5905 69.6462 14.3055C70.2521 14.7079 70.9134 14.6882 71.5973 14.6677C71.6661 14.6658 71.7352 14.6636 71.8044 14.662C71.8571 14.6607 71.923 14.6573 71.9979 14.6534C72.4579 14.629 73.2615 14.5868 73.4754 14.9284C73.9156 15.6312 72.3628 16.3699 71.8617 16.5252ZM88.1288 22.0869C88.3578 21.637 88.5842 21.1922 88.8404 20.7901C88.9592 20.6036 89.153 20.4748 89.3388 20.3514H89.339C89.3924 20.3159 89.4451 20.2808 89.4952 20.2449C90.1214 21.2206 89.5028 22.2659 88.9699 23.1659C88.9081 23.2704 88.8474 23.3729 88.7901 23.473C88.6215 23.7668 88.457 24.0728 88.2909 24.3815C87.9362 25.041 87.575 25.7123 87.1563 26.3025C86.1355 27.7408 83.9146 26.1848 83.8487 24.7065C83.7982 23.575 84.5997 24.0675 85.1143 24.4901C85.6439 24.9255 85.8947 25.0339 86.4499 24.5584C87.1961 23.9191 87.6676 22.9927 88.1288 22.0869ZM82.1169 18.1011C82.3416 16.617 81.3254 17.7695 81.1081 18.4521C80.8397 19.2943 80.6177 20.4839 81.0235 21.3197C81.7687 22.8539 83.8693 22.1227 84.8803 21.3077C85.3542 20.9256 86.0183 20.1296 85.9957 19.4661C85.9565 18.3118 85.0673 19.0039 84.5204 19.4296H84.5202C84.4505 19.4839 84.3863 19.5339 84.3301 19.5751C84.3075 19.5917 84.2833 19.6095 84.2581 19.6281C83.7507 20.0029 82.7424 20.7477 82.1515 20.3791C81.6085 20.0407 81.8262 19.2368 81.9974 18.6044C82.0487 18.4157 82.0956 18.2423 82.1169 18.1011ZM85.1223 12.1156C86.3218 11.8768 87.8667 11.9999 88.9103 12.68C90.255 13.556 88.4869 14.1869 87.721 14.2653C86.7939 14.3599 85.6086 14.4226 84.757 13.9678C83.55 13.323 83.9524 12.3489 85.1223 12.1156ZM71.4271 9.891C70.51 9.71274 69.23 10.1757 69.8614 11.2664C70.3326 12.0805 71.4935 12.3544 72.4021 12.5689C72.5124 12.5949 72.6192 12.6201 72.7204 12.6452C73.7305 12.896 74.2302 12.5262 73.8824 11.4121C73.5456 10.3337 72.416 10.0834 71.4271 9.891ZM90.5781 21.2996C90.6624 20.9472 91.1546 19.6225 91.4871 20.595C91.5382 20.7444 91.5444 20.9637 91.5511 21.1979C91.5679 21.7896 91.5873 22.4774 92.3401 22.3775C92.7285 22.3261 92.9125 21.9362 93.0831 21.575C93.1676 21.396 93.2488 21.224 93.3498 21.1036C94.3764 19.8812 94.0616 22.1933 93.7934 22.772C93.2022 24.0472 91.5475 24.926 90.7268 23.308C90.4215 22.7062 90.4229 21.9466 90.5781 21.2996ZM94.4427 16.1585H94.4429C94.9191 16.7116 95.7128 17.6337 96.2334 16.9658C96.7415 16.3138 95.8672 15.3036 95.4313 14.8C95.4123 14.7781 95.3942 14.7571 95.377 14.7372C95.3646 14.7227 95.3514 14.7073 95.3374 14.691C94.9433 14.2313 93.9326 13.0526 93.4195 13.9355C93.0987 14.4882 93.8513 15.53 94.2091 15.8959C94.2727 15.9609 94.3519 16.053 94.4427 16.1585ZM80.4551 27.0075C79.9636 26.4431 80.015 25.3972 80.2935 24.7442C80.5203 24.2124 80.8995 24.8706 81.1194 25.2517C81.1729 25.3447 81.217 25.421 81.2471 25.4597C81.3455 25.5864 81.4868 25.7037 81.6321 25.8243C81.9347 26.0755 82.2538 26.3403 82.233 26.7292C82.1821 27.6795 80.887 27.5032 80.4551 27.0075Z" fill="black"/>
<path fill-rule="evenodd" clip-rule="evenodd" d="M123.272 19.9843C122.732 19.8379 122.193 19.6915 121.657 19.5408C120.41 19.19 121.588 18.4007 122.329 18.4562C122.903 18.499 123.463 18.7 124.014 18.8977C124.257 18.9849 124.499 19.0716 124.739 19.1438C127.136 19.8635 129.358 20.6505 131.597 21.7676C131.931 21.9344 133.402 22.725 132.429 23.0751C131.918 23.2589 130.889 22.7057 130.169 22.3183C129.939 22.1945 129.741 22.0878 129.6 22.0272C127.568 21.1508 125.414 20.566 123.272 19.9843ZM143.626 37.7468C135.608 32.7728 127.624 27.9009 118.556 25.0514C118.084 24.9031 117.937 24.4815 118.185 24.0639C118.446 23.6237 118.948 23.6398 119.393 23.6541L119.431 23.6554C120.604 23.6925 121.75 24.063 122.86 24.4218L123.001 24.4675C125.538 25.2868 127.955 26.4234 130.337 27.6114C134.515 29.6936 138.535 32.2129 142.22 35.0775C142.991 35.6761 143.78 36.1612 144.618 36.6507C144.67 36.6811 144.724 36.7121 144.78 36.744C145.297 37.0409 145.938 37.4089 146.125 37.9861C146.65 39.6107 144.002 37.98 143.626 37.7468ZM14.1611 36.2684C11.2311 38.5478 8.36801 40.9211 5.71915 43.5225C4.77605 44.4487 3.99008 45.5081 3.20483 46.5669C2.84526 47.0517 2.48569 47.5364 2.11125 48.0079C2.07112 48.0584 2.02686 48.1176 1.97867 48.1819C1.67729 48.5835 1.22642 49.1846 0.734503 49.1182C0.108522 49.034 -0.0180187 47.9558 0.00193954 47.4849C0.0703065 45.8793 1.5367 44.3287 2.58244 43.2231C3.75879 41.9799 5.01648 40.7685 6.30087 39.6365C7.71497 38.3903 9.24965 37.3191 10.8135 36.2705C11.385 35.8873 11.9476 35.4818 12.5114 35.0757C13.4622 34.3908 14.4157 33.7039 15.4184 33.1182C16.1707 32.6789 17.4198 32.5118 17.0104 33.8341C16.7713 34.6067 15.8319 35.1916 15.0123 35.702C14.6946 35.8998 14.3951 36.0863 14.1611 36.2684ZM3.6667 33.1082C5.31604 32.5947 6.84534 31.7976 8.37464 31.0006C9.37112 30.4812 10.3678 29.9618 11.3974 29.5211C12.1379 29.2039 12.8891 28.9139 13.6401 28.6238C14.3157 28.3628 14.9911 28.1019 15.6589 27.8216C15.7218 27.795 15.7898 27.77 15.8599 27.744C16.2096 27.6146 16.6064 27.4677 16.6537 27.0557C16.7186 26.4852 16.3855 26.5022 15.9787 26.523H15.9785C15.9523 26.5243 15.9258 26.5257 15.8989 26.5268C14.9716 26.5685 13.9911 26.9795 13.0645 27.3679C12.682 27.5285 12.3084 27.685 11.9517 27.8101C11.6341 27.9215 11.3161 28.0303 10.9982 28.1389C10.0028 28.4793 9.01029 28.8188 8.03943 29.2349C6.7477 29.7885 5.42855 30.3613 4.26527 31.1582C4.22407 31.1865 4.18107 31.2154 4.137 31.2451C3.7518 31.5043 3.28563 31.8182 3.11901 32.2464C2.95222 32.6739 3.04413 33.3022 3.6667 33.1082Z" fill="black"/>
<path fill-rule="evenodd" clip-rule="evenodd" d="M71.9516 22.0958C72.1074 21.6386 74.0352 16.6397 73.2806 16.4891C72.4813 16.3291 71.413 19.2295 71.1812 19.7535C70.325 21.6888 69.818 23.7652 69.4208 25.8411C69.144 27.2866 68.9009 28.7673 68.9978 30.245C69.0723 31.3807 69.5413 31.5527 70.3142 32.2486C70.3142 28.7991 70.8385 25.3608 71.9516 22.0958Z" fill="black"/>
</svg>
